<svg width="192" height="192" viewBox="0 0 192 192" fill="none" xmlns="http://www.w3.org/2000/svg">
<path d="M96 188C146.81 188 188 146.81 188 96C188 45.1898 146.81 4 96 4C45.1898 4 4 45.1898 4 96C4 146.81 45.1898 188 96 188Z" fill="#48ACDA"/>
<path opacity="0.4" d="M96 186C145.706 186 186 145.706 186 96C186 46.2944 145.706 6 96 6C46.2944 6 6 46.2944 6 96C6 145.706 46.2944 186 96 186Z" stroke="white" stroke-width="3.6"/>
<path opacity="0.6" d="M96 180C142.392 180 180 142.392 180 96C180 49.6081 142.392 12 96 12C49.6081 12 12 49.6081 12 96C12 142.392 49.6081 180 96 180Z" stroke="white" stroke-width="3.2"/>
<path opacity="0.8" d="M96 174C139.078 174 174 139.078 174 96C174 52.9218 139.078 18 96 18C52.9218 18 18 52.9218 18 96C18 139.078 52.9218 174 96 174Z" stroke="white" stroke-width="2.8"/>
<path d="M51.5535 139.312C45.6255 139.312 40.9135 137.906 37.4175 135.094C33.9215 132.358 32.1735 128.368 32.1735 123.124C32.1735 119.324 32.9715 115.752 34.5675 112.408C36.2395 108.988 38.4815 105.948 41.2935 103.288C44.1055 100.628 47.2975 98.538 50.8695 97.018C54.5175 95.498 58.3175 94.738 62.2695 94.738C66.2975 94.738 69.4515 95.65 71.7315 97.474C74.0875 99.298 75.2655 101.768 75.2655 104.884C75.2655 107.164 73.7835 110.128 70.8195 113.776C67.8555 117.424 66.3735 118.64 66.3735 117.424C66.3735 117.12 66.4875 116.816 66.7155 116.512C69.1475 112.94 70.3635 109.596 70.3635 106.48C70.3635 103.668 69.4515 101.426 67.6275 99.754C65.8795 98.082 63.5615 97.246 60.6735 97.246C57.4815 97.246 54.4035 98.044 51.4395 99.64C48.5515 101.16 45.9675 103.212 43.6875 105.796C41.4075 108.38 39.6215 111.23 38.3295 114.346C37.0375 117.462 36.3915 120.54 36.3915 123.58C36.3915 127.76 37.7215 130.914 40.3815 133.042C43.1175 135.246 46.6895 136.348 51.0975 136.348C55.5815 136.348 59.8755 135.512 63.9795 133.84C68.1595 132.244 71.8835 129.926 75.1515 126.886C79.0275 123.238 82.9415 117.918 86.8935 110.926L96.8115 93.028C99.3955 88.924 102.093 83.984 104.905 78.208C107.717 72.356 110.681 65.668 113.797 58.144C102.853 57.992 92.2135 59.056 81.8775 61.336C70.8575 63.692 62.6875 66.96 57.3675 71.14C55.0875 72.812 53.9475 74.56 53.9475 76.384C53.9475 77.98 54.8215 79.31 56.5695 80.374C58.3935 81.362 60.6735 81.856 63.4095 81.856C65.0055 81.856 66.9055 81.628 69.1095 81.172C71.3135 80.716 73.4415 80.108 75.4935 79.348C77.5455 78.512 79.1035 77.6 80.1675 76.612C80.9275 76.004 81.4595 75.7 81.7635 75.7C82.3715 75.7 82.4855 76.004 82.1055 76.612C80.5095 78.512 78.4195 80.108 75.8355 81.4C73.3275 82.692 70.6675 83.68 67.8555 84.364C65.0435 84.972 62.4215 85.276 59.9895 85.276C56.2655 85.276 53.3395 84.554 51.2115 83.11C49.1595 81.59 48.1335 79.652 48.1335 77.296C48.1335 74.56 49.5015 71.9 52.2375 69.316C57.4055 64.3 66.6395 60.576 79.9395 58.144C85.1075 57.232 90.6555 56.586 96.5835 56.206C102.511 55.75 108.819 55.56 115.507 55.636C117.179 54.192 118.775 53.47 120.295 53.47C121.815 53.47 122.385 54.268 122.005 55.864C126.793 56.168 131.619 56.776 136.483 57.688C141.423 58.6 145.907 59.892 149.935 61.564C154.039 63.16 157.345 65.174 159.854 67.606C162.361 69.962 163.616 72.774 163.616 76.042C163.616 79.538 162.437 82.882 160.081 86.074C157.801 89.19 154.837 91.964 151.189 94.396C147.617 96.828 143.855 98.766 139.903 100.21C136.255 101.502 132.341 102.528 128.161 103.288C124.057 104.048 119.991 104.428 115.963 104.428C112.923 104.428 109.997 104.2 107.185 103.744C104.449 103.288 101.941 102.566 99.6615 101.578C95.0255 108.342 91.1495 113.852 88.0335 118.108C84.9935 122.364 82.6375 125.328 80.9655 127C72.7575 135.208 62.9535 139.312 51.5535 139.312ZM113.113 101.692C115.925 101.692 118.699 101.426 121.435 100.894C124.247 100.286 127.249 99.488 130.441 98.5C133.633 97.436 136.863 96.106 140.131 94.51C143.399 92.838 146.401 90.976 149.137 88.924C151.873 86.796 154.077 84.554 155.749 82.198C157.421 79.766 158.257 77.334 158.257 74.902C158.257 72.166 157.117 69.81 154.837 67.834C152.557 65.782 149.555 64.11 145.831 62.818C142.107 61.526 138.079 60.538 133.747 59.854C129.415 59.094 125.235 58.6 121.207 58.372L117.559 69.772C116.267 73.04 114.443 76.84 112.087 81.172C109.731 85.504 106.843 90.368 103.423 95.764L100.915 99.64C101.447 99.944 102.017 100.21 102.625 100.438C103.309 100.59 104.031 100.742 104.791 100.894C106.235 101.198 107.641 101.426 109.009 101.578C110.377 101.654 111.745 101.692 113.113 101.692Z" fill="white"/>
<path fill-rule="evenodd" clip-rule="evenodd" d="M51.4395 99.64C48.5515 101.16 45.9675 103.212 43.6875 105.796C41.4075 108.38 39.6215 111.23 38.3295 114.346C37.0375 117.462 36.3915 120.54 36.3915 123.58C36.3915 127.76 37.7215 130.914 40.3815 133.042C43.1175 135.246 46.6895 136.348 51.0975 136.348C55.5815 136.348 59.8755 135.512 63.9795 133.84C68.1595 132.244 71.8835 129.926 75.1515 126.886C79.0275 123.238 82.9415 117.918 86.8935 110.926L96.8115 93.028C99.3955 88.924 102.093 83.984 104.905 78.208C107.467 72.8773 110.155 66.8529 112.968 60.1349C113.244 59.4779 113.52 58.8143 113.797 58.144C113.076 58.134 112.357 58.1293 111.638 58.1298C101.453 58.1375 91.5324 59.2062 81.8775 61.336C70.8575 63.692 62.6875 66.96 57.3675 71.14C55.0875 72.812 53.9475 74.56 53.9475 76.384C53.9475 77.98 54.8215 79.31 56.5695 80.374C58.3935 81.362 60.6735 81.856 63.4095 81.856C65.0055 81.856 66.9055 81.628 69.1095 81.172C71.2638 80.7263 73.3455 80.1354 75.3545 79.3992C75.4009 79.3822 75.4472 79.3651 75.4935 79.348C77.5455 78.512 79.1035 77.6 80.1675 76.612C80.2388 76.555 80.3081 76.5006 80.3754 76.4489C80.6381 76.2471 80.8702 76.0861 81.0717 75.9659C81.1267 75.933 81.1794 75.9033 81.2299 75.8765C81.4519 75.7588 81.6297 75.7 81.7635 75.7C82.3715 75.7 82.4855 76.004 82.1055 76.612C81.9939 76.7448 81.8799 76.8762 81.7635 77.0061C81.5973 77.1915 81.4261 77.3739 81.25 77.5533C81.2144 77.5896 81.1785 77.6258 81.1424 77.6619C81.1175 77.6869 81.0924 77.7118 81.0672 77.7367C79.7321 79.0558 78.1245 80.2072 76.2443 81.1909C76.2253 81.2009 76.2062 81.2108 76.1871 81.2207C76.1801 81.2244 76.1731 81.228 76.166 81.2317C76.0568 81.2883 75.9466 81.3445 75.8355 81.4C73.3275 82.692 70.6675 83.68 67.8555 84.364C65.0435 84.972 62.4215 85.276 59.9895 85.276C56.2655 85.276 53.3395 84.554 51.2115 83.11C49.1595 81.59 48.1335 79.652 48.1335 77.296C48.1335 74.56 49.5015 71.9 52.2375 69.316C57.4055 64.3 66.6395 60.576 79.9395 58.144C85.1075 57.232 90.6555 56.586 96.5835 56.206C102.511 55.75 108.819 55.56 115.507 55.636C117.179 54.192 118.775 53.47 120.295 53.47C121.345 53.47 121.941 53.8501 122.085 54.6103C122.15 54.9516 122.123 55.3695 122.005 55.864C122.676 55.9066 123.347 55.9551 124.019 56.0096C128.146 56.3442 132.301 56.9037 136.483 57.688C141.423 58.6 145.907 59.892 149.935 61.564C154.039 63.16 157.345 65.174 159.854 67.606C162.362 69.962 163.616 72.774 163.616 76.042C163.616 79.538 162.438 82.882 160.082 86.074C157.802 89.19 154.837 91.964 151.189 94.396C147.617 96.828 143.855 98.766 139.903 100.21C136.255 101.502 132.341 102.528 128.161 103.288C124.057 104.048 119.991 104.428 115.963 104.428C112.923 104.428 109.997 104.2 107.185 103.744C104.449 103.288 101.941 102.566 99.6615 101.578C95.0255 108.342 91.1495 113.852 88.0335 118.108C84.9935 122.364 82.6375 125.328 80.9655 127C72.7575 135.208 62.9535 139.312 51.5535 139.312C45.6255 139.312 40.9135 137.906 37.4175 135.094C33.9215 132.358 32.1735 128.368 32.1735 123.124C32.1735 119.324 32.9715 115.752 34.5675 112.408C36.2395 108.988 38.4815 105.948 41.2935 103.288C44.1055 100.628 47.2975 98.538 50.8695 97.018C54.5175 95.498 58.3175 94.738 62.2695 94.738C66.2975 94.738 69.4515 95.65 71.7315 97.474C74.0875 99.298 75.2655 101.768 75.2655 104.884C75.2655 107.164 73.7835 110.128 70.8195 113.776C70.629 114.01 70.4446 114.235 70.2663 114.449C69.4408 115.442 68.7465 116.219 68.1835 116.781C68.024 116.941 67.8749 117.083 67.7365 117.207C67.722 117.22 67.7077 117.233 67.6935 117.246C67.621 117.31 67.5515 117.369 67.485 117.424C66.744 118.032 66.3735 118.032 66.3735 117.424C66.3735 117.12 66.4875 116.816 66.7155 116.512C66.8459 116.32 66.9728 116.13 67.0962 115.939C67.6663 115.061 68.1618 114.196 68.5827 113.345C69.7699 110.945 70.3635 108.657 70.3635 106.48C70.3635 103.668 69.4515 101.426 67.6275 99.754C65.8795 98.082 63.5615 97.246 60.6735 97.246C57.4815 97.246 54.4035 98.044 51.4395 99.64ZM65.0835 115.355C67.3592 112.004 68.3635 109.059 68.3635 106.48C68.3635 104.144 67.6284 102.468 66.276 101.228L66.2604 101.214L66.245 101.199C64.9396 99.9506 63.1528 99.246 60.6735 99.246C57.8307 99.246 55.0767 99.953 52.3877 101.401L52.3794 101.405L52.371 101.41C49.7097 102.81 47.3155 104.707 45.1872 107.119C43.0498 109.542 41.3827 112.204 40.177 115.112C38.9746 118.012 38.3915 120.83 38.3915 123.58C38.3915 127.305 39.5526 129.818 41.6309 131.48L41.6362 131.484C43.934 133.336 47.027 134.348 51.0975 134.348C55.3259 134.348 59.3634 133.561 63.2249 131.988L63.2454 131.979L63.2661 131.972C67.2049 130.468 70.7072 128.288 73.7856 125.425C77.4579 121.967 81.2533 116.839 85.1481 109.949C85.1495 109.947 85.1509 109.944 85.1524 109.942L95.0892 92.0097L95.119 91.9624C97.6538 87.9366 100.316 83.0648 103.106 77.336C105.551 72.2474 108.115 66.5137 110.8 60.1329C101.049 60.197 91.5527 61.2498 82.3083 63.289L82.2956 63.2918C71.3999 65.6213 63.5746 68.8065 58.6031 72.7126L58.577 72.7332L58.5502 72.7528C56.4938 74.2608 55.9475 75.487 55.9475 76.384C55.9475 77.0756 56.2585 77.8311 57.5665 78.6393C59.0143 79.4116 60.9292 79.856 63.4095 79.856C64.8266 79.856 66.584 79.6522 68.7043 79.2135C70.8018 78.7795 72.8228 78.2026 74.7686 77.4837C76.686 76.6998 77.9916 75.9032 78.8066 75.1464L78.8606 75.0963L78.9181 75.0503C79.3379 74.7144 79.7516 74.4158 80.1442 74.1915C80.4631 74.0093 81.059 73.7 81.7635 73.7C82.1324 73.7 83.6285 73.7614 84.1776 75.2258C84.4137 75.8552 84.3183 76.4285 84.2179 76.773C84.1142 77.1283 83.9496 77.435 83.8015 77.672L83.7271 77.791L83.6369 77.8984C81.8409 80.0364 79.5245 81.79 76.7406 83.1835C74.0915 84.5471 71.286 85.5879 68.3282 86.3073L68.3032 86.3134L68.2781 86.3188C65.3517 86.9516 62.5866 87.276 59.9895 87.276C56.036 87.276 52.6656 86.5137 50.0885 84.765L50.0543 84.7417L50.021 84.7171C47.5094 82.8567 46.1335 80.345 46.1335 77.296C46.1335 73.8318 47.8791 70.6846 50.8543 67.8714C56.4643 62.4329 66.1892 58.6252 79.5797 56.1766L79.5919 56.1744C84.8376 55.2487 90.4554 54.5951 96.4429 54.2109C102.216 53.7673 108.335 53.5738 114.801 53.6289C116.508 52.2968 118.349 51.47 120.295 51.47C121.335 51.47 122.658 51.7412 123.49 52.906C123.74 53.2556 123.902 53.6264 123.998 54.0015C128.256 54.3401 132.539 54.9137 136.85 55.7218C141.898 56.654 146.512 57.9794 150.682 59.7082C154.956 61.3732 158.498 63.5092 161.234 66.1591C164.113 68.8687 165.616 72.195 165.616 76.042C165.616 80.0208 164.266 83.7719 161.693 87.2585C159.259 90.5839 156.119 93.5121 152.307 96.0546C148.605 98.5745 144.698 100.587 140.59 102.089L140.581 102.092L140.571 102.095C136.814 103.426 132.796 104.478 128.522 105.255C124.304 106.036 120.117 106.428 115.963 106.428C112.823 106.428 109.79 106.192 106.865 105.718L106.857 105.717C104.571 105.336 102.418 104.775 100.404 104.03C96.1638 110.199 92.5797 115.284 89.6542 119.28C86.611 123.54 84.1762 126.618 82.3797 128.414C73.8043 136.99 63.4947 141.312 51.5535 141.312C45.3223 141.312 40.1244 139.833 36.1745 136.661C32.1106 133.475 30.1735 128.853 30.1735 123.124C30.1735 119.034 31.0348 115.167 32.7625 111.547L32.7666 111.538L32.7707 111.53C34.5497 107.891 36.936 104.657 39.9191 101.835C42.9041 99.0114 46.2965 96.7904 50.0864 95.1777L50.0933 95.1747L50.1003 95.1719C53.992 93.5503 58.0534 92.738 62.2695 92.738C66.5746 92.738 70.2217 93.7108 72.9684 95.9023C75.8308 98.124 77.2655 101.188 77.2655 104.884C77.2655 107.909 75.3697 111.347 72.3717 115.037C70.8918 116.859 69.668 118.22 68.7536 118.97C68.5157 119.165 68.247 119.363 67.9585 119.521C67.7077 119.658 67.2393 119.88 66.6514 119.88C65.8957 119.88 65.1621 119.507 64.7351 118.807C64.406 118.267 64.3735 117.714 64.3735 117.424C64.3735 116.61 64.6776 115.911 65.0835 115.355ZM104.791 100.894C106.235 101.198 107.641 101.426 109.009 101.578C110.377 101.654 111.745 101.692 113.113 101.692C115.925 101.692 118.699 101.426 121.435 100.894C124.247 100.286 127.249 99.488 130.441 98.5C133.633 97.436 136.863 96.106 140.131 94.51C143.399 92.838 146.401 90.976 149.137 88.924C151.873 86.796 154.077 84.554 155.749 82.198C157.421 79.766 158.257 77.334 158.257 74.902C158.257 72.166 157.117 69.81 154.837 67.834C152.557 65.782 149.555 64.11 145.831 62.818C142.107 61.526 138.079 60.538 133.747 59.854C129.415 59.094 125.235 58.6 121.207 58.372L117.559 69.772C116.267 73.04 114.443 76.84 112.087 81.172C109.731 85.504 106.843 90.368 103.423 95.764L100.915 99.64C101.447 99.944 102.017 100.21 102.625 100.438C102.671 100.448 102.716 100.458 102.762 100.468C103.405 100.61 104.082 100.752 104.791 100.894ZM103.923 98.6732C104.33 98.7596 104.75 98.8462 105.184 98.9328L105.194 98.9348L105.204 98.9369C106.569 99.2245 107.893 99.4398 109.176 99.5841C110.488 99.6561 111.801 99.692 113.113 99.692C115.791 99.692 118.431 99.4394 121.033 98.9348C123.768 98.3427 126.7 97.5639 129.829 96.5958C132.919 95.5649 136.055 94.2743 139.237 92.7211C142.399 91.1023 145.293 89.3059 147.923 87.3345C150.523 85.3105 152.574 83.2132 154.11 81.0528C155.596 78.8865 156.257 76.8462 156.257 74.902C156.257 72.8098 155.42 70.9854 153.528 69.3454L153.513 69.3331L153.5 69.3206C151.466 67.4901 148.717 65.9359 145.176 64.7075C141.575 63.4583 137.664 62.4971 133.436 61.8295L133.419 61.8269L133.402 61.8239C129.693 61.1732 126.104 60.722 122.636 60.4688L119.444 70.4452L119.419 70.5073C118.088 73.874 116.225 77.7503 113.844 82.1276C111.462 86.5081 108.55 91.4114 105.113 96.8347L105.108 96.8426L103.923 98.6732Z" fill="white"/>
</svg>
