<svg width="64" height="64" viewBox="0 0 64 64" fill="none" xmlns="http://www.w3.org/2000/svg">
<path d="M32 62.6667C48.9367 62.6667 62.6667 48.9367 62.6667 32C62.6667 15.0633 48.9367 1.33333 32 1.33333C15.0633 1.33333 1.33334 15.0633 1.33334 32C1.33334 48.9367 15.0633 62.6667 32 62.6667Z" fill="#48ACDA"/>
<path opacity="0.4" d="M32 62C48.5685 62 62 48.5685 62 32C62 15.4315 48.5685 2 32 2C15.4315 2 2 15.4315 2 32C2 48.5685 15.4315 62 32 62Z" stroke="white" stroke-width="1.2"/>
<path opacity="0.5" d="M32 60C47.464 60 60 47.464 60 32C60 16.536 47.464 4 32 4C16.536 4 4 16.536 4 32C4 47.464 16.536 60 32 60Z" stroke="white" stroke-width="1.2"/>
<path opacity="0.5" d="M32 58C46.3594 58 58 46.3594 58 32C58 17.6406 46.3594 6 32 6C17.6406 6 6 17.6406 6 32C6 46.3594 17.6406 58 32 58Z" stroke="white" stroke-width="1.06667"/>
<path opacity="0.8" d="M32 56C45.2548 56 56 45.2548 56 32C56 18.7452 45.2548 8 32 8C18.7452 8 8 18.7452 8 32C8 45.2548 18.7452 56 32 56Z" stroke="white" stroke-width="0.933333"/>
<path d="M20.1605 46C18.582 46 17.3273 45.5414 16.3964 44.6242C15.4655 43.7317 15 42.4303 15 40.7198C15 39.4803 15.2125 38.3152 15.6375 37.2244C16.0827 36.1089 16.6797 35.1173 17.4284 34.2497C18.1772 33.382 19.0272 32.7003 19.9783 32.2045C20.9497 31.7087 21.9615 31.4608 23.0139 31.4608C24.0864 31.4608 24.9263 31.7583 25.5334 32.3533C26.1607 32.9482 26.4744 33.7539 26.4744 34.7703C26.4744 35.5139 26.0798 36.4807 25.2905 37.6707C24.5013 38.8606 24.1067 39.2572 24.1067 38.8606C24.1067 38.7614 24.137 38.6622 24.1977 38.5631C24.8453 37.398 25.1691 36.3072 25.1691 35.2908C25.1691 34.3736 24.9263 33.6423 24.4406 33.0969C23.9751 32.5516 23.3579 32.2789 22.5889 32.2789C21.7389 32.2789 20.9193 32.5392 20.1301 33.0598C19.3611 33.5556 18.673 34.2249 18.0659 35.0677C17.4588 35.9106 16.9832 36.8402 16.6392 37.8566C16.2952 38.873 16.1232 39.8769 16.1232 40.8685C16.1232 42.232 16.4773 43.2607 17.1856 43.9548C17.9141 44.6737 18.8653 45.0332 20.039 45.0332C21.233 45.0332 22.3764 44.7605 23.4692 44.2151C24.5822 43.6946 25.5739 42.9385 26.4441 41.9469C27.4761 40.757 28.5184 39.0217 29.5707 36.741L32.2116 30.9031C32.8997 29.5644 33.6181 27.9531 34.3669 26.0691C35.1156 24.1602 35.9049 21.9788 36.7346 19.5246C33.8205 19.475 30.9873 19.822 28.235 20.5657C25.3007 21.3342 23.1252 22.4002 21.7086 23.7636C21.1015 24.309 20.7979 24.8792 20.7979 25.4741C20.7979 25.9947 21.0306 26.4285 21.4961 26.7756C21.9818 27.0978 22.5889 27.259 23.3174 27.259C23.7424 27.259 24.2483 27.1846 24.8352 27.0359C25.4221 26.8871 25.9887 26.6888 26.5351 26.4409C27.0815 26.1682 27.4964 25.8707 27.7797 25.5485C27.9821 25.3502 28.1237 25.251 28.2047 25.251C28.3666 25.251 28.3969 25.3502 28.2957 25.5485C27.8708 26.1682 27.3143 26.6888 26.6262 27.1102C25.9584 27.5317 25.2501 27.8539 24.5013 28.077C23.7525 28.2753 23.0544 28.3745 22.4068 28.3745C21.4151 28.3745 20.636 28.139 20.0694 27.668C19.523 27.1722 19.2498 26.5401 19.2498 25.7716C19.2498 24.8792 19.6141 24.0115 20.3426 23.1687C21.7187 21.5325 24.1775 20.3178 27.719 19.5246C29.0951 19.2271 30.5724 19.0164 32.1509 18.8924C33.7294 18.7437 35.4091 18.6817 37.1899 18.7065C37.6352 18.2355 38.0601 18 38.4649 18C38.8696 18 39.0214 18.2603 38.9202 18.7809C40.1951 18.88 41.4802 19.0784 42.7754 19.3758C44.0908 19.6733 45.2848 20.0947 46.3573 20.6401C47.4501 21.1607 48.3304 21.8176 48.9983 22.6109C49.6661 23.3794 50 24.2966 50 25.3625C50 26.5029 49.6863 27.5936 49.059 28.6348C48.4519 29.6512 47.6626 30.556 46.6912 31.3493C45.7401 32.1425 44.7384 32.7747 43.686 33.2457C42.7147 33.6671 41.6724 34.0018 40.5594 34.2497C39.4666 34.4976 38.3839 34.6215 37.3114 34.6215C36.5019 34.6215 35.7228 34.5471 34.974 34.3984C34.2454 34.2497 33.5776 34.0142 32.9705 33.6919C31.7361 35.8982 30.704 37.6954 29.8742 39.0837C29.0648 40.4719 28.4374 41.4387 27.9922 41.9841C25.8066 44.6614 23.196 46 20.1605 46ZM36.5525 33.7291C37.3012 33.7291 38.0399 33.6423 38.7684 33.4688C39.5172 33.2705 40.3166 33.0102 41.1665 32.6879C42.0165 32.3409 42.8766 31.907 43.7467 31.3865C44.6169 30.8411 45.4163 30.2337 46.1448 29.5644C46.8734 28.8703 47.4602 28.139 47.9055 27.3705C48.3507 26.5772 48.5733 25.784 48.5733 24.9907C48.5733 24.0983 48.2697 23.3298 47.6626 22.6853C47.0555 22.0159 46.2561 21.4706 45.2645 21.0491C44.2729 20.6277 43.2003 20.3054 42.0468 20.0823C40.8933 19.8344 39.7803 19.6733 38.7077 19.5989L37.7363 23.3174C37.3923 24.3834 36.9066 25.6228 36.2793 27.0359C35.6519 28.4489 34.8829 30.0354 33.9722 31.7955L33.3044 33.0598C33.4461 33.1589 33.5979 33.2457 33.7598 33.3201C33.9419 33.3696 34.1341 33.4192 34.3365 33.4688C34.721 33.568 35.0954 33.6423 35.4597 33.6919C35.8239 33.7167 36.1882 33.7291 36.5525 33.7291Z" fill="white"/>
</svg>
