<svg width="201" height="46" viewBox="0 0 201 46" fill="none" xmlns="http://www.w3.org/2000/svg">
<path d="M187.757 45.72C185.397 45.72 183.257 45.42 181.337 44.82C179.457 44.22 177.897 43.44 176.657 42.48L178.937 37.98C179.977 38.86 181.277 39.6 182.837 40.2C184.437 40.76 186.137 41.04 187.937 41.04C190.177 41.04 191.857 40.68 192.977 39.96C194.137 39.2 194.717 38.24 194.717 37.08C194.717 36.24 194.497 35.5 194.057 34.86C193.657 34.22 192.897 33.6 191.777 33C190.657 32.36 189.037 31.68 186.917 30.96C183.997 29.96 181.797 28.78 180.317 27.42C178.877 26.02 178.157 24.1 178.157 21.66C178.157 19.26 179.197 17.24 181.277 15.6C183.397 13.92 186.317 13.08 190.037 13.08C192.037 13.08 193.817 13.3 195.377 13.74C196.937 14.14 198.337 14.66 199.577 15.3L198.077 19.74C196.997 19.1 195.757 18.58 194.357 18.18C192.997 17.78 191.477 17.58 189.797 17.58C187.717 17.58 186.137 18 185.057 18.84C183.977 19.68 183.437 20.6 183.437 21.6C183.437 22.56 183.857 23.38 184.697 24.06C185.537 24.74 187.177 25.48 189.617 26.28C193.577 27.6 196.337 29.06 197.897 30.66C199.457 32.26 200.237 34.26 200.237 36.66C200.237 39.46 199.097 41.68 196.817 43.32C194.577 44.92 191.557 45.72 187.757 45.72Z" fill="#1E78A2"/>
<path d="M153.346 45.72C151.546 45.72 149.846 45.34 148.246 44.58C146.646 43.82 145.346 42.6 144.346 40.92C143.346 39.2 142.846 36.92 142.846 34.08V13.8H148.246V33.36C148.246 35.8 148.766 37.68 149.806 39C150.846 40.28 152.366 40.92 154.366 40.92C156.006 40.92 157.586 40.6 159.106 39.96C160.666 39.28 162.046 38.38 163.246 37.26V13.8H168.646V36.9C168.646 38.62 169.006 39.76 169.726 40.32C170.486 40.84 171.306 41.1 172.186 41.1L171.046 45.3C167.326 45.3 165.026 43.82 164.146 40.86C162.746 42.3 161.126 43.48 159.286 44.4C157.446 45.28 155.466 45.72 153.346 45.72Z" fill="#1E78A2"/>
<path d="M128.146 45V13.8H133.546V45H128.146ZM130.846 8.46C129.806 8.46 128.906 8.08 128.146 7.32C127.426 6.56 127.066 5.68 127.066 4.68C127.066 3.52 127.406 2.6 128.086 1.92C128.766 1.24 129.686 0.900002 130.846 0.900002C131.886 0.900002 132.766 1.28 133.486 2.04C134.246 2.76 134.626 3.64 134.626 4.68C134.626 5.8 134.286 6.72 133.606 7.44C132.926 8.12 132.006 8.46 130.846 8.46Z" fill="#1E78A2"/>
<path d="M116.884 45.72C115.044 45.72 113.384 45.38 111.904 44.7C110.424 43.98 109.244 42.84 108.364 41.28C107.524 39.72 107.104 37.7 107.104 35.22V0.599998H112.504V34.68C112.504 36.84 112.944 38.44 113.824 39.48C114.744 40.52 116.004 41.04 117.604 41.04C118.364 41.04 119.104 40.96 119.824 40.8C120.584 40.6 121.224 40.38 121.744 40.14L123.064 44.52C122.344 44.84 121.444 45.12 120.364 45.36C119.324 45.6 118.164 45.72 116.884 45.72Z" fill="#1E78A2"/>
<path d="M81.3926 45.72C79.5926 45.72 77.8926 45.34 76.2926 44.58C74.6926 43.82 73.3926 42.6 72.3926 40.92C71.3926 39.2 70.8926 36.92 70.8926 34.08V13.8H76.2926V33.36C76.2926 35.8 76.8126 37.68 77.8526 39C78.8926 40.28 80.4126 40.92 82.4126 40.92C84.0526 40.92 85.6326 40.6 87.1526 39.96C88.7126 39.28 90.0926 38.38 91.2926 37.26V13.8H96.6926V36.9C96.6926 38.62 97.0526 39.76 97.7726 40.32C98.5326 40.84 99.3526 41.1 100.233 41.1L99.0926 45.3C95.3726 45.3 93.0726 43.82 92.1926 40.86C90.7926 42.3 89.1726 43.48 87.3326 44.4C85.4926 45.28 83.5126 45.72 81.3926 45.72Z" fill="#1E78A2"/>
<path d="M46.1013 45.72C43.5013 45.72 41.1413 45.06 39.0213 43.74C36.9013 42.42 35.2013 40.56 33.9213 38.16C32.6813 35.72 32.0613 32.86 32.0613 29.58C32.0613 26.46 32.6813 23.66 33.9213 21.18C35.2013 18.7 36.9413 16.74 39.1413 15.3C41.3813 13.82 43.9413 13.08 46.8213 13.08C48.6213 13.08 50.2413 13.4 51.6813 14.04C53.1613 14.64 54.4413 15.4 55.5213 16.32V13.8H60.4413V37.44C60.4413 38.96 60.8013 39.96 61.5213 40.44C62.2813 40.88 63.1013 41.1 63.9813 41.1L62.8413 45.3C59.0013 45.3 56.6813 43.74 55.8813 40.62C54.9613 41.9 53.7013 43.08 52.1013 44.16C50.5413 45.2 48.5413 45.72 46.1013 45.72ZM47.3013 40.92C48.8213 40.92 50.2613 40.56 51.6213 39.84C52.9813 39.08 54.1213 38.14 55.0413 37.02V20.28C53.9613 19.52 52.7613 18.92 51.4413 18.48C50.1613 18 48.8013 17.76 47.3613 17.76C45.4413 17.76 43.7413 18.26 42.2613 19.26C40.8213 20.22 39.6813 21.58 38.8413 23.34C38.0013 25.06 37.5813 27.08 37.5813 29.4C37.5813 31.64 38.0013 33.64 38.8413 35.4C39.6813 37.12 40.8413 38.48 42.3213 39.48C43.8013 40.44 45.4613 40.92 47.3013 40.92Z" fill="#1E78A2"/>
<path d="M0.776947 45V3.12C2.41695 2.92 4.21695 2.78 6.17695 2.7C8.17695 2.58 10.2369 2.52 12.3569 2.52C15.8369 2.52 18.7969 3.08 21.2369 4.2C23.6769 5.28 25.5369 6.78 26.8169 8.7C28.097 10.62 28.737 12.82 28.737 15.3C28.737 18.3 27.997 20.84 26.517 22.92C25.0369 25 22.9769 26.6 20.3369 27.72C17.6969 28.8 14.6369 29.34 11.1569 29.34C9.47695 29.34 7.91695 29.28 6.47695 29.16V45H0.776947ZM11.8769 24.6C15.4369 24.6 18.1969 23.8 20.1569 22.2C22.1169 20.6 23.0969 18.46 23.0969 15.78C23.0969 13.18 22.1569 11.12 20.2769 9.6C18.3969 8.08 15.7169 7.32 12.2369 7.32C11.1569 7.32 10.1369 7.34 9.17695 7.38C8.21695 7.42 7.31695 7.48 6.47695 7.56V24.3C7.11695 24.38 7.89695 24.46 8.81695 24.54C9.73695 24.58 10.7569 24.6 11.8769 24.6Z" fill="#1E78A2"/>
</svg>
